<mxfile host="app.diagrams.net" agent="Mozilla/5.0 (Windows NT 10.0; Win64; x64) AppleWebKit/537.36 (KHTML, like Gecko) Chrome/129.0.0.0 Safari/537.36" version="24.7.17">
  <diagram name="Page-1" id="K6RwfYoAZErQgbME3MRW">
    <mxGraphModel dx="1434" dy="772" grid="1" gridSize="10" guides="1" tooltips="1" connect="1" arrows="1" fold="1" page="1" pageScale="1" pageWidth="850" pageHeight="1100" math="0" shadow="0">
      <root>
        <mxCell id="0" />
        <mxCell id="1" parent="0" />
        <mxCell id="MtTaYBWNNLW2RoNZtLNF-3" style="edgeStyle=orthogonalEdgeStyle;rounded=0;orthogonalLoop=1;jettySize=auto;html=1;exitX=0.5;exitY=1;exitDx=0;exitDy=0;entryX=0.5;entryY=0;entryDx=0;entryDy=0;" edge="1" parent="1" source="MtTaYBWNNLW2RoNZtLNF-1" target="MtTaYBWNNLW2RoNZtLNF-2">
          <mxGeometry relative="1" as="geometry" />
        </mxCell>
        <mxCell id="MtTaYBWNNLW2RoNZtLNF-1" value="Begin" style="rounded=1;whiteSpace=wrap;html=1;" vertex="1" parent="1">
          <mxGeometry x="360" y="70" width="120" height="60" as="geometry" />
        </mxCell>
        <mxCell id="MtTaYBWNNLW2RoNZtLNF-5" style="edgeStyle=orthogonalEdgeStyle;rounded=0;orthogonalLoop=1;jettySize=auto;html=1;exitX=0.5;exitY=1;exitDx=0;exitDy=0;" edge="1" parent="1" source="MtTaYBWNNLW2RoNZtLNF-2" target="MtTaYBWNNLW2RoNZtLNF-4">
          <mxGeometry relative="1" as="geometry" />
        </mxCell>
        <mxCell id="MtTaYBWNNLW2RoNZtLNF-2" value="bake a cake&amp;nbsp;" style="rounded=0;whiteSpace=wrap;html=1;" vertex="1" parent="1">
          <mxGeometry x="360" y="180" width="120" height="60" as="geometry" />
        </mxCell>
        <mxCell id="MtTaYBWNNLW2RoNZtLNF-7" style="edgeStyle=orthogonalEdgeStyle;rounded=0;orthogonalLoop=1;jettySize=auto;html=1;exitX=0.5;exitY=1;exitDx=0;exitDy=0;entryX=0.5;entryY=0;entryDx=0;entryDy=0;" edge="1" parent="1" source="MtTaYBWNNLW2RoNZtLNF-4" target="MtTaYBWNNLW2RoNZtLNF-6">
          <mxGeometry relative="1" as="geometry" />
        </mxCell>
        <mxCell id="MtTaYBWNNLW2RoNZtLNF-4" value="gather the ingredients&amp;nbsp;" style="rounded=0;whiteSpace=wrap;html=1;" vertex="1" parent="1">
          <mxGeometry x="360" y="280" width="120" height="60" as="geometry" />
        </mxCell>
        <mxCell id="MtTaYBWNNLW2RoNZtLNF-9" style="edgeStyle=orthogonalEdgeStyle;rounded=0;orthogonalLoop=1;jettySize=auto;html=1;exitX=0.5;exitY=1;exitDx=0;exitDy=0;entryX=0.5;entryY=0;entryDx=0;entryDy=0;" edge="1" parent="1" source="MtTaYBWNNLW2RoNZtLNF-6" target="MtTaYBWNNLW2RoNZtLNF-8">
          <mxGeometry relative="1" as="geometry" />
        </mxCell>
        <mxCell id="MtTaYBWNNLW2RoNZtLNF-6" value="preheat the oven&amp;nbsp;" style="rounded=0;whiteSpace=wrap;html=1;" vertex="1" parent="1">
          <mxGeometry x="360" y="390" width="120" height="60" as="geometry" />
        </mxCell>
        <mxCell id="MtTaYBWNNLW2RoNZtLNF-11" style="edgeStyle=orthogonalEdgeStyle;rounded=0;orthogonalLoop=1;jettySize=auto;html=1;exitX=0.5;exitY=1;exitDx=0;exitDy=0;entryX=0.5;entryY=0;entryDx=0;entryDy=0;" edge="1" parent="1" source="MtTaYBWNNLW2RoNZtLNF-8" target="MtTaYBWNNLW2RoNZtLNF-10">
          <mxGeometry relative="1" as="geometry" />
        </mxCell>
        <mxCell id="MtTaYBWNNLW2RoNZtLNF-8" value="make the dough&amp;nbsp;" style="rounded=0;whiteSpace=wrap;html=1;" vertex="1" parent="1">
          <mxGeometry x="360" y="500" width="120" height="60" as="geometry" />
        </mxCell>
        <mxCell id="MtTaYBWNNLW2RoNZtLNF-13" style="edgeStyle=orthogonalEdgeStyle;rounded=0;orthogonalLoop=1;jettySize=auto;html=1;exitX=1;exitY=0.5;exitDx=0;exitDy=0;entryX=0;entryY=0.5;entryDx=0;entryDy=0;" edge="1" parent="1" source="MtTaYBWNNLW2RoNZtLNF-10" target="MtTaYBWNNLW2RoNZtLNF-12">
          <mxGeometry relative="1" as="geometry" />
        </mxCell>
        <mxCell id="MtTaYBWNNLW2RoNZtLNF-16" style="edgeStyle=orthogonalEdgeStyle;rounded=0;orthogonalLoop=1;jettySize=auto;html=1;exitX=0.5;exitY=1;exitDx=0;exitDy=0;" edge="1" parent="1" source="MtTaYBWNNLW2RoNZtLNF-10" target="MtTaYBWNNLW2RoNZtLNF-14">
          <mxGeometry relative="1" as="geometry" />
        </mxCell>
        <mxCell id="MtTaYBWNNLW2RoNZtLNF-10" value="oven is ready&amp;nbsp;" style="rhombus;whiteSpace=wrap;html=1;" vertex="1" parent="1">
          <mxGeometry x="300" y="620" width="120" height="110" as="geometry" />
        </mxCell>
        <mxCell id="MtTaYBWNNLW2RoNZtLNF-12" value="put the cake in the oven&amp;nbsp;" style="rounded=0;whiteSpace=wrap;html=1;" vertex="1" parent="1">
          <mxGeometry x="540" y="645" width="120" height="60" as="geometry" />
        </mxCell>
        <mxCell id="MtTaYBWNNLW2RoNZtLNF-17" style="edgeStyle=orthogonalEdgeStyle;rounded=0;orthogonalLoop=1;jettySize=auto;html=1;exitX=0.5;exitY=0;exitDx=0;exitDy=0;entryX=0;entryY=0.5;entryDx=0;entryDy=0;" edge="1" parent="1" source="MtTaYBWNNLW2RoNZtLNF-14" target="MtTaYBWNNLW2RoNZtLNF-10">
          <mxGeometry relative="1" as="geometry">
            <Array as="points">
              <mxPoint x="360" y="840" />
              <mxPoint x="280" y="840" />
              <mxPoint x="280" y="675" />
            </Array>
          </mxGeometry>
        </mxCell>
        <mxCell id="MtTaYBWNNLW2RoNZtLNF-14" value="wait&amp;nbsp;" style="rounded=0;whiteSpace=wrap;html=1;" vertex="1" parent="1">
          <mxGeometry x="300" y="810" width="120" height="60" as="geometry" />
        </mxCell>
        <mxCell id="MtTaYBWNNLW2RoNZtLNF-18" value="no" style="text;html=1;align=center;verticalAlign=middle;resizable=0;points=[];autosize=1;strokeColor=none;fillColor=none;" vertex="1" parent="1">
          <mxGeometry x="240" y="708" width="40" height="30" as="geometry" />
        </mxCell>
        <mxCell id="MtTaYBWNNLW2RoNZtLNF-19" value="yes" style="text;html=1;align=center;verticalAlign=middle;resizable=0;points=[];autosize=1;strokeColor=none;fillColor=none;" vertex="1" parent="1">
          <mxGeometry x="390" y="620" width="40" height="30" as="geometry" />
        </mxCell>
      </root>
    </mxGraphModel>
  </diagram>
</mxfile>
